<svg width="260" height="385" viewBox="0 0 260 385" fill="none" xmlns="http://www.w3.org/2000/svg">
<g id="6">
<path id="Vector" d="M0.0078125 51.1499L37.0057 67.8779L74.0038 51.1499L147.999 84.6047L184.997 67.8779L111.001 34.4219L147.999 17.6938L111.001 0.966797L0.0078125 51.1499Z" fill="white"/>
<path id="Vector_2" d="M37.0057 67.8779L0.0078125 84.6047L74.0038 118.061L111.001 101.333L37.0057 67.8779Z" fill="white"/>
<path id="Vector_3" d="M147.999 118.061L184.997 101.333L147.999 84.605L111.001 101.333L147.999 118.061Z" fill="white"/>
<path id="Vector_4" d="M184.997 0.966797L147.999 17.6938L221.995 51.1499L258.993 34.4219L184.997 0.966797Z" fill="white"/>
<path id="Vector_5" d="M0.0078125 317.152L37.0057 333.88L74.0038 317.152L147.999 350.608L184.997 333.88L111.001 300.425L147.999 283.697L111.001 266.969L0.0078125 317.152Z" fill="#597BA1"/>
<path id="Vector_6" d="M37.0057 333.88L0.0078125 350.608L74.0038 384.063L111.001 367.335L37.0057 333.88Z" fill="#597BA1"/>
<path id="Vector_7" d="M147.999 384.063L184.997 367.335L147.999 350.608L111.001 367.335L147.999 384.063Z" fill="#597BA1"/>
<path id="Vector_8" d="M184.997 266.969L147.999 283.697L221.995 317.152L258.993 300.425L184.997 266.969Z" fill="#597BA1"/>
<path id="Vector_9" d="M111.001 34.4224L147.999 51.1504V17.6943L111.001 34.4224Z" fill="#597BA1"/>
<path id="Vector_10" d="M147.999 84.6047L184.997 101.333V67.8779L147.999 84.6047Z" fill="#597BA1"/>
<path id="Vector_11" d="M37.0059 67.8774L74.0029 84.6052V51.1504L37.0059 67.8774Z" fill="#597BA1"/>
<path id="Vector_12" d="M147.999 118.061V159.855L184.997 143.127V101.333L147.999 118.061Z" fill="#597BA1"/>
<path id="Vector_13" d="M221.995 51.1499V92.9438L258.993 76.2158V34.4219L221.995 51.1499Z" fill="#597BA1"/>
<path id="Vector_14" d="M74.0029 118.061V159.855L111.001 143.127V101.333L74.0029 118.061Z" fill="#597BA1"/>
<path id="Vector_15" d="M111.018 267.031V300.487L148.016 283.759L111.018 267.031Z" fill="#0F4C81"/>
<path id="Vector_16" d="M37.0225 333.942V367.398L74.0205 384.126L111.017 367.398L37.0225 333.942Z" fill="#0F4C81"/>
<path id="Vector_17" d="M148.016 384.126L185.014 367.398L148.016 350.67V384.126Z" fill="#0F4C81"/>
<path id="Vector_18" d="M111.018 300.487V333.942L148.016 350.67L185.014 333.942L111.018 300.487Z" fill="#0F4C81"/>
<path id="Vector_19" d="M185.014 267.031V300.487L222.012 317.215L259.01 300.487L185.014 267.031Z" fill="#0F4C81"/>
<path id="Vector_20" d="M74.0039 51.1504V84.6052L111.001 101.333L147.999 84.6052L74.0039 51.1504Z" fill="#0F4C81"/>
<path id="Vector_21" d="M0.0078125 51.1504V84.6052L37.0057 67.8774L0.0078125 51.1504Z" fill="#0F4C81"/>
<path id="Vector_22" d="M111.001 101.333V143.127L147.999 159.855V118.061L111.001 101.333Z" fill="#0F4C81"/>
<path id="Vector_23" d="M147.999 17.6943V51.1504L184.997 67.8784V76.2163L221.995 92.9443V51.1504L147.999 17.6943Z" fill="#0F4C81"/>
<path id="Vector_24" d="M37.0057 101.333L0.0078125 84.605V126.399L37.0057 143.127L74.0038 159.855V118.061L37.0057 101.333Z" fill="#0F4C81"/>
</g>
</svg>
