<svg width="260" height="401" viewBox="0 0 260 401" fill="none" xmlns="http://www.w3.org/2000/svg">
<path d="M0.445312 50.6679L37.4434 67.3949L148.436 17.2119L111.438 0.484863L0.445312 50.6679Z" fill="white"/>
<path d="M111.438 134.307L185.434 100.851L148.436 84.123L111.438 100.851L37.4434 67.395L0.445312 84.123L111.438 134.307Z" fill="white"/>
<path d="M222.431 84.123L259.429 67.395L222.431 50.668L185.434 67.395L222.431 84.123Z" fill="white"/>
<path d="M185.434 0.484863L148.436 17.2119L222.431 50.6679L259.429 33.9399L185.434 0.484863Z" fill="white"/>
<path d="M0.445312 317.36L37.4434 334.087L148.436 283.904L111.438 267.176L0.445312 317.36Z" fill="#597BA1"/>
<path d="M111.438 400.998L185.434 367.543L148.436 350.815L111.438 367.543L37.4434 334.087L0.445312 350.815L111.438 400.998Z" fill="#597BA1"/>
<path d="M222.431 350.815L259.429 334.087L222.431 317.36L185.434 334.087L222.431 350.815Z" fill="#597BA1"/>
<path d="M185.434 267.176L148.436 283.904L222.431 317.36L259.429 300.632L185.434 267.176Z" fill="#597BA1"/>
<path d="M37.4434 67.3949L83.6624 88.2919L148.436 59.0059V17.2119L37.4434 67.3949Z" fill="#597BA1"/>
<path d="M222.432 50.6679L259.43 67.3959V33.9399L222.432 50.6679Z" fill="#597BA1"/>
<path d="M111.438 134.306V176.1L185.434 142.645V100.851L111.438 134.306Z" fill="#597BA1"/>
<path d="M222.432 84.123V125.917L259.43 109.19V67.396L222.432 84.123Z" fill="#597BA1"/>
<path d="M111.565 267.176V300.632L148.563 283.904L111.565 267.176Z" fill="#0F4C81"/>
<path d="M37.5703 334.087V367.543L111.566 400.998V367.543L37.5703 334.087Z" fill="#0F4C81"/>
<path d="M148.563 384.271L185.562 367.543L148.563 350.815V384.271Z" fill="#0F4C81"/>
<path d="M222.559 350.815L259.556 334.087L222.559 317.359V350.815Z" fill="#0F4C81"/>
<path d="M185.562 267.176V300.632L222.559 317.359L259.556 300.632L185.562 267.176Z" fill="#0F4C81"/>
<path d="M0.445312 50.668V84.154L37.4434 67.395L0.445312 50.668Z" fill="#0F4C81"/>
<path d="M148.436 17.2119V59.0059L185.434 75.7339V67.3959L222.431 50.6679L148.436 17.2119Z" fill="#0F4C81"/>
<path d="M185.434 67.396V109.19L222.431 125.917V84.123L185.434 67.396Z" fill="#0F4C81"/>
<path d="M0.445312 84.1543V125.948L111.438 176.1V134.306L0.445312 84.1543Z" fill="#0F4C81"/>
</svg>
