<svg width="437" height="463" viewBox="0 0 437 463" fill="none" xmlns="http://www.w3.org/2000/svg">
<g clip-path="url(#clip0_339_8238)">
<g filter="url(#filter0_d_339_8238)">
<rect x="157" y="32" width="280" height="394" rx="20" fill="#F2F2F2"/>
<rect x="157.5" y="32.5" width="279" height="393" rx="19.5" stroke="#D2D2D2"/>
</g>
<mask id="mask0_339_8238" style="mask-type:alpha" maskUnits="userSpaceOnUse" x="172" y="48" width="249" height="362">
<rect x="172" y="48" width="249" height="362" fill="#C4C4C4"/>
</mask>
<g mask="url(#mask0_339_8238)">
<path d="M477.5 410.5L115 48" stroke="#2F80ED" stroke-width="440" stroke-dasharray="20 20"/>
</g>
</g>
<g filter="url(#filter1_d_339_8238)">
<rect x="34" y="29.7516" width="280" height="394" rx="20" fill="#F2F2F2"/>
<rect x="34.5" y="30.2516" width="279" height="393" rx="19.5" stroke="#D2D2D2"/>
</g>
<path d="M105.773 114.033H85.2266L81.3203 125.752H68.8594L90.0312 68.8766H100.891L122.18 125.752H109.719L105.773 114.033ZM88.3906 104.541H102.609L95.4609 83.2516L88.3906 104.541Z" fill="#F24822"/>
<path fill-rule="evenodd" clip-rule="evenodd" d="M107.516 161.024C98.3285 161.165 96.5021 171.625 96.5021 171.625C96.5021 171.625 94.382 161.165 85.1945 161.024C76.0069 160.882 70.3529 168.939 73.4626 177.42C76.5722 185.901 79.6705 187.809 84.5527 193.957C89.4347 200.106 96.5375 210.742 96.5021 213.251C96.4669 210.742 103.276 200.106 108.158 193.957C113.04 187.809 116.138 185.901 119.248 177.42C122.357 168.939 116.704 160.882 107.516 161.024Z" fill="#F24822"/>
<defs>
<filter id="filter0_d_339_8238" x="123" y="3" width="348" height="462" filterUnits="userSpaceOnUse" color-interpolation-filters="sRGB">
<feFlood flood-opacity="0" result="BackgroundImageFix"/>
<feColorMatrix in="SourceAlpha" type="matrix" values="0 0 0 0 0 0 0 0 0 0 0 0 0 0 0 0 0 0 127 0" result="hardAlpha"/>
<feOffset dy="5"/>
<feGaussianBlur stdDeviation="17"/>
<feColorMatrix type="matrix" values="0 0 0 0 0 0 0 0 0 0 0 0 0 0 0 0 0 0 0.1 0"/>
<feBlend mode="normal" in2="BackgroundImageFix" result="effect1_dropShadow_339_8238"/>
<feBlend mode="normal" in="SourceGraphic" in2="effect1_dropShadow_339_8238" result="shape"/>
</filter>
<filter id="filter1_d_339_8238" x="0" y="0.751587" width="348" height="462" filterUnits="userSpaceOnUse" color-interpolation-filters="sRGB">
<feFlood flood-opacity="0" result="BackgroundImageFix"/>
<feColorMatrix in="SourceAlpha" type="matrix" values="0 0 0 0 0 0 0 0 0 0 0 0 0 0 0 0 0 0 127 0" result="hardAlpha"/>
<feOffset dy="5"/>
<feGaussianBlur stdDeviation="17"/>
<feColorMatrix type="matrix" values="0 0 0 0 0 0 0 0 0 0 0 0 0 0 0 0 0 0 0.1 0"/>
<feBlend mode="normal" in2="BackgroundImageFix" result="effect1_dropShadow_339_8238"/>
<feBlend mode="normal" in="SourceGraphic" in2="effect1_dropShadow_339_8238" result="shape"/>
</filter>
<clipPath id="clip0_339_8238">
<rect width="280" height="394" fill="white" transform="translate(157 32)"/>
</clipPath>
</defs>
</svg>
